<svg width="65" height="65" viewBox="0 0 65 65" fill="none" xmlns="http://www.w3.org/2000/svg">
<path d="M28.2888 60.75L28.2902 60.7501C28.3173 60.7516 28.3456 60.7526 28.375 60.7526C29.1139 60.7526 29.7336 60.1776 29.779 59.4306C29.8261 58.6546 29.2355 57.9876 28.4596 57.9404L28.4595 57.9404C27.0932 57.8573 25.8523 57.6711 24.6629 57.3723L24.5411 57.8572L24.6629 57.3723C12.68 54.3627 4.31094 43.6214 4.31094 31.2493C4.31094 16.3981 16.3942 4.31485 31.2454 4.31485C42.6363 4.31485 52.6779 11.4419 56.5298 21.9434C56.2383 22.0588 55.9831 22.272 55.8188 22.5684L55.8187 22.5684C55.4419 23.2481 55.6875 24.1049 56.3673 24.4816C56.3673 24.4817 56.3673 24.4817 56.3673 24.4817L57.9818 25.3766C58.0767 25.4325 58.5464 25.6918 59.1248 25.5069C59.6426 25.3417 59.8767 24.9368 59.9274 24.8448C59.9275 24.8447 59.9276 24.8445 59.9277 24.8444L60.8394 23.1994L60.4021 22.957L60.8394 23.1994C61.2162 22.5196 60.9707 21.6629 60.2906 21.2861C59.9562 21.1007 59.5802 21.0665 59.2397 21.1595C55.0352 9.45639 43.8928 1.5 31.2454 1.5C23.3 1.5 15.8276 4.59509 10.2095 10.2134C4.59118 15.8317 1.49609 23.3039 1.49609 31.2493C1.49609 38.0113 3.7088 44.387 7.89325 49.6809C11.9518 54.8157 17.6627 58.5165 23.9772 60.1023C25.3424 60.4452 26.7536 60.6567 28.2888 60.75Z" fill="#D3CDBF" stroke="#D3CDBF"/>
<path d="M45.4284 13.0891L45.4283 13.0892L12.2288 44.3657L12.2287 44.3657C11.6839 44.8792 11.6841 45.7243 12.2294 46.2373C12.4965 46.4887 12.8419 46.6099 13.1795 46.6098C13.5171 46.6097 13.8624 46.4883 14.1294 46.2368L47.3289 14.9603L47.329 14.9602C47.8738 14.4468 47.8737 13.6017 47.3284 13.0886L47.3282 13.0885C46.8002 12.592 45.9561 12.5921 45.4284 13.0891Z" fill="#D3CDBF" stroke="#D3CDBF"/>
<path d="M13.6079 17.4219C9.88799 17.4219 8.62401 22.2639 10.5855 22.2639C11.0864 22.2639 11.4929 21.858 11.4929 21.3565C11.4929 20.1902 12.4417 19.2416 13.6078 19.2416C15.5533 19.2416 16.467 21.6672 14.9969 22.9515L9.98599 27.33C9.3566 27.88 9.74691 28.9206 10.5831 28.9206H16.6326C17.1337 28.9206 17.54 28.5097 17.54 28.0085C17.54 27.5072 17.1337 27.1011 16.6326 27.1011H13.0094L16.194 24.3218C18.9195 21.9431 17.2384 17.4219 13.6079 17.4219Z" fill="#46525E"/>
<path d="M26.6745 24.6808H25.1667L25.162 18.3304C25.1615 17.8295 24.7555 17.4238 24.2546 17.4238C23.7537 17.4238 23.3471 17.8299 23.3471 18.3313V24.6808H20.0921C20.1109 24.6268 21.5931 20.3704 21.6078 20.3152C21.9294 19.0911 20.2608 18.6547 19.8888 19.7267L17.9551 25.2953C17.7506 25.8845 18.1889 26.5004 18.8123 26.5004H23.3469C23.3466 28.0541 23.269 28.3098 23.6138 28.6544C24.1846 29.2255 25.1666 28.8162 25.1666 28.0104V26.5005H26.6744C27.1756 26.5005 27.5818 26.0943 27.5818 25.5931C27.5819 25.0734 27.1639 24.6808 26.6745 24.6808Z" fill="#46525E"/>
<path d="M41.4144 32.3671C41.2492 32.1 40.9575 31.9375 40.6434 31.9375H35.0861C34.5855 31.9375 34.1797 32.3433 34.1797 32.844C34.1797 33.3446 34.5855 33.7504 35.0861 33.7504H39.1778L34.9976 42.1247C34.774 42.5726 34.9558 43.117 35.4037 43.3406C35.5338 43.4055 35.6719 43.4363 35.8078 43.4363C36.1406 43.4363 36.4609 43.2524 36.6196 42.9345L41.4544 33.2489C41.5948 32.9677 41.5797 32.6343 41.4144 32.3671Z" fill="#46525E"/>
<path d="M55.0258 27.6434C53.4632 27.9274 52.3282 29.2882 52.3282 30.8763V33.8598C52.3282 35.4484 53.4643 36.8097 55.0272 37.0938L55.39 37.1597C53.7365 46.0353 46.9266 53.1197 38.1972 55.1746C37.9751 53.5459 36.584 52.3317 34.9403 52.3317H30.9993C29.3556 52.3317 27.9647 53.5456 27.7427 55.1741C27.0969 59.9103 30.7393 63.2167 34.7023 62.9899C49.9746 62.1163 62.1936 49.8633 62.9945 34.5561C63.2124 30.3912 59.5746 26.8163 55.0258 27.6434Z" fill="#53F563"/>
<path d="M34.7022 62.9891C49.9745 62.1154 62.1935 49.8624 62.9945 34.5553C63.061 33.2832 62.7664 32.067 62.1975 31.0137C60.648 31.3604 59.4568 32.7032 59.3698 34.3658C58.6643 47.8471 47.9705 58.5946 34.495 59.3655C32.8343 59.4604 31.4994 60.6581 31.1582 62.2063C32.2233 62.7771 33.4464 63.061 34.7022 62.9891Z" fill="#41D050"/>
</svg>
