<svg width="17" height="16" viewBox="0 0 17 16" fill="none" xmlns="http://www.w3.org/2000/svg">
<path d="M15.4199 3.53341H4.26195L3.94091 1.92318C3.86078 1.52167 3.6439 1.16038 3.32723 0.900869C3.01056 0.641357 2.6137 0.499686 2.20428 0.500001H0V2.01671H2.20428C2.26342 2.01551 2.3211 2.0351 2.36729 2.07205C2.41348 2.109 2.44525 2.16098 2.45707 2.21893L3.99147 9.89094C4.11702 10.5209 4.45681 11.088 4.95311 11.4958C5.44941 11.9036 6.0716 12.127 6.71396 12.1281H12.6544C13.325 12.1286 13.9735 11.8877 14.4812 11.4496C14.989 11.0115 15.3221 10.4053 15.4199 9.7418L16.1782 4.40046C16.1939 4.29216 16.186 4.18174 16.1549 4.07679C16.1239 3.97183 16.0706 3.87484 15.9985 3.79247C15.9265 3.71009 15.8374 3.64428 15.7376 3.59957C15.6377 3.55485 15.5293 3.53228 15.4199 3.53341ZM13.9032 9.52693C13.8597 9.83016 13.7075 10.1073 13.4751 10.3068C13.2426 10.5062 12.9455 10.6145 12.6392 10.6114H6.71396C6.42259 10.6114 6.14014 10.5108 5.91442 10.3266C5.68871 10.1423 5.53359 9.88573 5.47531 9.60024L4.56529 5.05012H14.5452L13.9032 9.52693Z" fill="white"/>
<path d="M13.9027 15.6668C14.4612 15.6668 14.9139 15.2141 14.9139 14.6557C14.9139 14.0972 14.4612 13.6445 13.9027 13.6445C13.3443 13.6445 12.8916 14.0972 12.8916 14.6557C12.8916 15.2141 13.3443 15.6668 13.9027 15.6668Z" fill="white"/>
<path d="M5.30801 15.6668C5.86645 15.6668 6.31915 15.2141 6.31915 14.6557C6.31915 14.0972 5.86645 13.6445 5.30801 13.6445C4.74958 13.6445 4.29688 14.0972 4.29688 14.6557C4.29688 15.2141 4.74958 15.6668 5.30801 15.6668Z" fill="white"/>
</svg>
