<svg width="30" height="30" viewBox="0 0 30 30" fill="none" xmlns="http://www.w3.org/2000/svg">
<path d="M23.7004 9.6H10.4584L10.0774 7.689C9.9823 7.2125 9.72491 6.78373 9.34909 6.47574C8.97327 6.16776 8.50228 5.99963 8.01639 6H5.40039V7.8H8.01639C8.08657 7.79859 8.15503 7.82183 8.20985 7.86568C8.26466 7.90953 8.30237 7.97122 8.31639 8.04L10.1374 17.145C10.2864 17.8926 10.6897 18.5656 11.2787 19.0496C11.8676 19.5336 12.606 19.7988 13.3684 19.8H20.4184C21.2143 19.8006 21.9839 19.5148 22.5864 18.9948C23.189 18.4748 23.5844 17.7554 23.7004 16.968L24.6004 10.629C24.619 10.5005 24.6096 10.3694 24.5728 10.2449C24.536 10.1203 24.4726 10.0052 24.3871 9.90744C24.3016 9.80968 24.196 9.73158 24.0774 9.67851C23.9589 9.62544 23.8303 9.59866 23.7004 9.6ZM21.9004 16.713C21.8488 17.0729 21.6682 17.4018 21.3923 17.6385C21.1164 17.8752 20.7639 18.0037 20.4004 18H13.3684C13.0226 18.0001 12.6874 17.8807 12.4195 17.662C12.1516 17.4433 11.9676 17.1388 11.8984 16.8L10.8184 11.4H22.6624L21.9004 16.713Z" fill="black"/>
<path d="M21.9002 23.9996C22.5629 23.9996 23.1002 23.4624 23.1002 22.7996C23.1002 22.1369 22.5629 21.5996 21.9002 21.5996C21.2375 21.5996 20.7002 22.1369 20.7002 22.7996C20.7002 23.4624 21.2375 23.9996 21.9002 23.9996Z" fill="black"/>
<path d="M11.7 23.9996C12.3627 23.9996 12.9 23.4624 12.9 22.7996C12.9 22.1369 12.3627 21.5996 11.7 21.5996C11.0373 21.5996 10.5 22.1369 10.5 22.7996C10.5 23.4624 11.0373 23.9996 11.7 23.9996Z" fill="black"/>
</svg>
