<svg width="30" height="30" viewBox="0 0 30 30" fill="none" xmlns="http://www.w3.org/2000/svg">
<path d="M21.2996 5.7002H12.8996C12.0244 5.7002 11.185 6.04787 10.5662 6.66674C9.94729 7.28561 9.59961 8.12498 9.59961 9.0002V11.7002H11.3996V9.0002C11.3996 8.60237 11.5576 8.22084 11.8389 7.93953C12.1203 7.65823 12.5018 7.5002 12.8996 7.5002H21.2996C21.6974 7.5002 22.079 7.65823 22.3603 7.93953C22.6416 8.22084 22.7996 8.60237 22.7996 9.0002V21.0002C22.7996 21.398 22.6416 21.7796 22.3603 22.0609C22.079 22.3422 21.6974 22.5002 21.2996 22.5002H12.8996C12.5018 22.5002 12.1203 22.3422 11.8389 22.0609C11.5576 21.7796 11.3996 21.398 11.3996 21.0002V18.3002H9.59961V21.0002C9.59961 21.8754 9.94729 22.7148 10.5662 23.3336C11.185 23.9525 12.0244 24.3002 12.8996 24.3002H21.2996C22.1748 24.3002 23.0142 23.9525 23.6331 23.3336C24.2519 22.7148 24.5996 21.8754 24.5996 21.0002V9.0002C24.5996 8.12498 24.2519 7.28561 23.6331 6.66674C23.0142 6.04787 22.1748 5.7002 21.2996 5.7002Z" fill="black"/>
<path d="M14.6284 18.2997L15.9004 19.5717L19.8364 15.6357C20.0049 15.467 20.0996 15.2382 20.0996 14.9997C20.0996 14.7612 20.0049 14.5325 19.8364 14.3637L15.9004 10.4277L14.6284 11.6997L17.0284 14.0997H5.40039V15.8997H17.0284L14.6284 18.2997Z" fill="black"/>
</svg>
