<svg width="65" height="65" viewBox="0 0 65 65" fill="none" xmlns="http://www.w3.org/2000/svg">
<g clip-path="url(#clip0)">
<path d="M15.918 36.5359V47.1653H53.2759C54.3432 47.1653 55.2085 46.3 55.2085 45.2326C55.2085 44.2943 55.2085 37.4725 55.2085 36.5359L35.5632 33.959L15.918 36.5359Z" fill="#8B9BA9"/>
<path d="M51.3432 36.0215V43.301H15.918V47.1662H53.2759C54.3432 47.1662 55.2085 46.3009 55.2085 45.2336C55.2085 44.3443 55.2085 37.4091 55.2085 36.5368L51.3432 36.0215Z" fill="#6C7A88"/>
<path d="M56.9477 11.0684H21.716C20.6487 11.0684 19.7834 11.9337 19.7834 13.001V19.0236H6.89481C5.08692 19.0236 3.52048 20.277 3.12378 22.0408L1.66105 28.5454C1.28536 30.2162 1.0957 31.9236 1.0957 33.6362V47.1656H19.7834C19.7834 46.8511 19.7834 42.0711 19.7834 36.5362H56.9478C58.0151 36.5362 58.8804 35.671 58.8804 34.6036V13.001C58.8803 11.9335 58.0151 11.0684 56.9477 11.0684Z" fill="#41D050"/>
<path d="M64.0343 28.2366H58.8804V24.7686H61.4573C61.9911 24.7686 62.4236 24.336 62.4236 23.8023C62.4236 23.2686 61.9911 22.836 61.4573 22.836H58.8804V19.368H62.7457C63.2795 19.368 63.712 18.9354 63.712 18.4017C63.712 17.868 63.2795 17.4354 62.7457 17.4354H58.8804V13.9673H64.0343C64.568 13.9673 65.0006 13.5346 65.0006 13.001C65.0006 12.4673 64.568 12.0347 64.0343 12.0347H58.6197C58.2854 11.4576 57.6627 11.0684 56.9478 11.0684H55.0152V32.6712H19.7834C19.7834 25.8726 19.7834 19.2071 19.7834 19.0235H15.9182V36.5364H13.0192C10.202 36.5364 7.63925 37.6402 5.73525 39.4353H1.0957V47.1657H19.7834C19.7834 46.9035 19.7834 42.1016 19.7834 36.5364H31.6952H56.9478C57.6627 36.5364 58.2854 36.1472 58.6197 35.5701H62.7457C63.2795 35.5701 63.712 35.1374 63.712 34.6038C63.712 34.0701 63.2795 33.6375 62.7457 33.6375H58.8804V30.1693H64.0343C64.568 30.1693 65.0006 29.7367 65.0006 29.203C65.0006 28.6694 64.568 28.2366 64.0343 28.2366Z" fill="#339E3E"/>
<path d="M0.966303 47.166H8.03913V43.3008H0.966303C0.432646 43.3008 0 43.7334 0 44.2671V46.1997C0 46.7335 0.432646 47.166 0.966303 47.166Z" fill="#8B9BA9"/>
<path d="M15.9174 22.8887H6.66357L4.82617 31.0594H15.9174V22.8887Z" fill="#9DC6FB"/>
<path d="M12.2827 27.1941H5.69533L4.82617 31.0594H15.9174V22.8887H12.2827V27.1941Z" fill="#80B4FB"/>
<path d="M45.8676 53.9306C49.6034 53.9306 52.6318 50.9022 52.6318 47.1665C52.6318 43.4307 49.6034 40.4023 45.8676 40.4023C42.1319 40.4023 39.1035 43.4307 39.1035 47.1665C39.1035 50.9022 42.1319 53.9306 45.8676 53.9306Z" fill="#4D5967"/>
<path d="M47.2504 40.5449C46.4576 42.0097 46.6793 43.8784 47.9174 45.1164L43.8177 49.2162C42.5797 47.978 40.711 47.7561 39.2461 48.5491C39.8862 51.6177 42.6117 53.9304 45.8676 53.9304C49.5974 53.9304 52.6317 50.8961 52.6317 47.1663C52.6316 43.9104 50.319 41.185 47.2504 40.5449Z" fill="#35404A"/>
<path d="M45.8677 50.0654C47.4687 50.0654 48.7666 48.7675 48.7666 47.1665C48.7666 45.5655 47.4687 44.2676 45.8677 44.2676C44.2666 44.2676 42.9688 45.5655 42.9688 47.1665C42.9688 48.7675 44.2666 50.0654 45.8677 50.0654Z" fill="#FFF9EB"/>
<path d="M13.018 53.9306C16.7538 53.9306 19.7822 50.9022 19.7822 47.1665C19.7822 43.4307 16.7538 40.4023 13.018 40.4023C9.28231 40.4023 6.25391 43.4307 6.25391 47.1665C6.25391 50.9022 9.28231 53.9306 13.018 53.9306Z" fill="#4D5967"/>
<path d="M14.4008 40.5449C13.6079 42.0097 13.8297 43.8784 15.0678 45.1164L10.9681 49.2162C9.7301 47.978 7.8614 47.7561 6.39648 48.5491C7.03656 51.6177 9.76205 53.9304 13.018 53.9304C16.7478 53.9304 19.7821 50.8961 19.7821 47.1663C19.7821 43.9104 17.4695 41.185 14.4008 40.5449Z" fill="#35404A"/>
<path d="M13.0181 50.0654C14.6191 50.0654 15.917 48.7675 15.917 47.1665C15.917 45.5655 14.6191 44.2676 13.0181 44.2676C11.417 44.2676 10.1191 45.5655 10.1191 47.1665C10.1191 48.7675 11.417 50.0654 13.0181 50.0654Z" fill="#FFF9EB"/>
</g>
<defs>
<clipPath id="clip0">
<rect width="65" height="65" fill="white"/>
</clipPath>
</defs>
</svg>
