<svg width="43" height="43" viewBox="0 0 43 43" fill="none" xmlns="http://www.w3.org/2000/svg">
<path d="M32.1724 19.7539C35.5626 19.7539 38.9527 19.7539 42.3186 19.7539C42.8029 19.7539 42.8998 19.8993 42.9482 20.3594C43.0693 22.2481 42.9239 24.0885 42.5607 25.9288C42.1976 27.7692 41.4952 29.5369 40.6476 31.232C39.9698 32.6123 39.0979 33.8713 38.1293 35.0821C36.5796 37.0193 34.7393 38.5934 32.6325 39.8767C30.889 40.9422 29.0244 41.7413 27.063 42.2499C24.1814 43.0006 21.2757 43.17 18.3213 42.7342C16.2631 42.4435 14.3016 41.8623 12.4371 40.9907C9.77341 39.7557 7.44875 38.0365 5.4631 35.8328C4.42184 34.6704 3.50168 33.3871 2.751 32.0311C1.83083 30.3844 1.10437 28.6409 0.644281 26.8248C0.0631184 24.5001 -0.106385 22.1512 0.0873365 19.7539C0.353703 16.1459 1.51603 12.8284 3.47745 9.80154C4.90616 7.59797 6.7223 5.73341 8.82901 4.18364C10.9842 2.58544 13.3572 1.39888 15.9483 0.745073C18.7088 0.0428321 21.5177 -0.175102 24.3752 0.236556C26.603 0.551353 28.7096 1.15673 30.7438 2.10113C32.802 3.06972 34.6181 4.40155 36.3132 5.9029C36.5796 6.14506 36.7006 6.363 36.3617 6.67779C35.7079 7.28316 35.1024 7.91277 34.4971 8.56656C34.2548 8.83293 34.1338 8.61499 33.9885 8.49393C33.4316 7.93697 32.8263 7.45267 32.1967 6.99259C30.8649 6.02398 29.4361 5.2491 27.8864 4.66794C26.5545 4.15941 25.1743 3.79619 23.7214 3.65088C23.3581 3.62668 23.1887 3.65088 23.1402 4.08676C22.898 6.26614 22.3411 8.37285 21.4693 10.3827C20.6945 12.1746 19.6531 13.8455 18.4182 15.3468C17.3043 16.7029 16.0451 17.9136 14.6164 18.9549C13.5025 19.7782 12.316 20.5289 11.0568 21.1101C10.8631 21.207 10.5967 21.2311 10.5483 21.5216C10.5241 21.8607 10.8389 21.8364 11.0084 21.9092C14.0111 23.3863 16.5294 25.4445 18.6362 28.0356C20.3071 30.0938 21.4451 32.37 22.2442 34.8642C22.6559 36.1719 23.019 37.5038 23.0918 38.8839C23.1159 39.3199 23.3338 39.465 23.7455 39.3925C25.707 39.0776 27.5957 38.5692 29.3877 37.6974C31.1312 36.8498 32.7051 35.7844 34.0369 34.4525C35.6836 32.8302 37.0397 30.9656 37.984 28.7863C38.6379 27.2849 39.0494 25.7352 39.3401 24.137C39.4855 23.362 39.3643 23.2167 38.5895 23.2167C33.0684 23.2167 27.5472 23.2167 22.0263 23.2167C21.5905 23.2167 21.4451 23.0957 21.4451 22.6355C21.4936 21.8364 21.4936 21.0373 21.4451 20.2625C21.4208 19.8267 21.5662 19.7298 21.9779 19.7298C25.4163 19.7539 28.8065 19.7539 32.1724 19.7539ZM19.1689 39.3683C19.6047 39.465 19.7259 39.223 19.6531 38.8597C19.3142 36.6319 18.6362 34.501 17.5223 32.5395C16.0693 29.9243 14.0353 27.8177 11.5411 26.171C9.31331 24.6939 6.84336 23.8706 4.22812 23.4346C3.62276 23.3379 3.50168 23.4589 3.59853 24.0642C3.98598 26.3164 4.664 28.4473 5.80212 30.4329C7.13395 32.7574 8.90166 34.7189 11.081 36.2686C12.5097 37.2859 14.0837 38.0606 15.7788 38.6175C16.8927 38.9566 18.0308 39.1745 19.1689 39.3683ZM4.17969 19.536C4.78508 19.5603 5.31781 19.3665 5.87475 19.2455C8.39313 18.6401 10.6694 17.5504 12.7034 15.9764C14.7133 14.4024 16.3599 12.5379 17.5949 10.3101C18.6604 8.37285 19.3626 6.31457 19.6775 4.13519C19.7259 3.79619 19.6775 3.60245 19.2657 3.65088C18.5151 3.72354 17.7886 3.89304 17.0622 4.08676C15.1976 4.54686 13.5025 5.32173 11.8801 6.363C9.09537 8.15491 6.91601 10.4796 5.43889 13.4096C4.54292 15.1773 3.93755 17.0419 3.64696 19.0275C3.5501 19.5844 3.79225 19.6088 4.17969 19.536Z" fill="#B0D604"/>
</svg>
