<svg width="31" height="31" viewBox="0 0 31 31" fill="none" xmlns="http://www.w3.org/2000/svg">
<path d="M23.1974 14.2395C25.6427 14.2395 28.088 14.2395 30.5157 14.2395C30.865 14.2395 30.9349 14.3444 30.9698 14.6766C31.0571 16.0401 30.9523 17.3687 30.6903 18.6972C30.4284 20.0258 29.9218 21.302 29.3105 22.5257C28.8215 23.5221 28.1927 24.431 27.4941 25.3051C26.3763 26.7036 25.0489 27.8399 23.5293 28.7664C22.2718 29.5356 20.9269 30.1125 19.5121 30.4797C17.4337 31.0216 15.3379 31.1439 13.207 30.8293C11.7224 30.6194 10.3077 30.1999 8.96283 29.5706C7.04159 28.6791 5.36486 27.4379 3.93266 25.847C3.18162 25.0079 2.51793 24.0814 1.97649 23.1025C1.31279 21.9138 0.788809 20.6551 0.456957 19.344C0.0377778 17.6658 -0.0844811 15.9701 0.0552458 14.2395C0.24737 11.6348 1.08573 9.23988 2.50046 7.05472C3.53095 5.46393 4.84089 4.11788 6.36041 2.99907C7.91488 1.84531 9.62652 0.988722 11.4954 0.516729C13.4865 0.00977128 15.5125 -0.147558 17.5735 0.149623C19.1804 0.376879 20.6998 0.81391 22.1671 1.49569C23.6516 2.19492 24.9615 3.15639 26.1841 4.24023C26.3763 4.41505 26.4635 4.57239 26.2191 4.79964C25.7475 5.23666 25.3108 5.69119 24.8742 6.16317C24.6995 6.35546 24.6122 6.19813 24.5074 6.11073C24.1057 5.70866 23.6691 5.35903 23.215 5.0269C22.2544 4.32764 21.2239 3.76825 20.1061 3.3487C19.1454 2.98159 18.1499 2.71937 17.102 2.61447C16.8399 2.597 16.7177 2.61447 16.6828 2.92914C16.508 4.50246 16.1064 6.02332 15.4775 7.47426C14.9187 8.76789 14.1676 9.9741 13.2769 11.0579C12.4735 12.0369 11.5652 12.9109 10.5348 13.6626C9.73133 14.257 8.8755 14.7989 7.96726 15.2185C7.82754 15.2885 7.63542 15.3059 7.60049 15.5156C7.58302 15.7604 7.81009 15.7429 7.93233 15.7954C10.0981 16.8618 11.9146 18.3476 13.4341 20.2181C14.6393 21.704 15.4601 23.3472 16.0365 25.1478C16.3335 26.0919 16.5953 27.0533 16.6478 28.0496C16.6652 28.3644 16.8224 28.4692 17.1194 28.4168C18.5341 28.1895 19.8964 27.8225 21.1889 27.1931C22.4465 26.5812 23.5817 25.8121 24.5423 24.8506C25.73 23.6794 26.7082 22.3334 27.3892 20.76C27.8609 19.6762 28.1577 18.5574 28.3674 17.4037C28.4722 16.8442 28.3848 16.7393 27.826 16.7393C23.8437 16.7393 19.8614 16.7393 15.8793 16.7393C15.565 16.7393 15.4601 16.6519 15.4601 16.3197C15.4951 15.7429 15.4951 15.166 15.4601 14.6066C15.4426 14.292 15.5474 14.2221 15.8444 14.2221C18.3244 14.2395 20.7697 14.2395 23.1974 14.2395ZM13.8183 28.3994C14.1327 28.4692 14.2201 28.2945 14.1676 28.0322C13.9231 26.4239 13.4341 24.8856 12.6307 23.4696C11.5827 21.5816 10.1156 20.0608 8.31658 18.8721C6.70973 17.8057 4.92821 17.2114 3.0419 16.8966C2.60526 16.8268 2.51793 16.9142 2.58779 17.3512C2.86725 18.977 3.35629 20.5154 4.17719 21.9488C5.13781 23.6269 6.41281 25.0429 7.98474 26.1617C9.01522 26.896 10.1505 27.4553 11.3731 27.8574C12.1765 28.1022 12.9974 28.2595 13.8183 28.3994ZM3.00697 14.0822C3.44362 14.0997 3.82787 13.9598 4.22957 13.8724C6.04602 13.4354 7.68782 12.6487 9.15495 11.5124C10.6046 10.3762 11.7923 9.0301 12.683 7.42183C13.4515 6.02332 13.9581 4.53742 14.1852 2.9641C14.2201 2.71937 14.1852 2.57951 13.8882 2.61447C13.3468 2.66692 12.8228 2.78929 12.2988 2.92914C10.9539 3.26129 9.73133 3.82068 8.56111 4.57239C6.55254 5.86599 4.98061 7.5442 3.9152 9.65943C3.26895 10.9356 2.83232 12.2816 2.62272 13.7151C2.55286 14.1171 2.72751 14.1347 3.00697 14.0822Z" fill="white"/>
</svg>
