<svg width="20" height="20" viewBox="0 0 20 20" fill="none" xmlns="http://www.w3.org/2000/svg">
<path d="M14.1863 19.1664H14.212C14.696 19.1664 15.1534 18.9757 15.4999 18.6292L17.9859 16.1432C18.0711 16.0582 18.1387 15.9572 18.1848 15.846C18.231 15.7347 18.2547 15.6155 18.2547 15.4951C18.2547 15.3748 18.231 15.2556 18.1848 15.1443C18.1387 15.0331 18.0711 14.9321 17.9859 14.8471L14.3193 11.1804C14.2342 11.0952 14.1332 11.0276 14.022 10.9815C13.9108 10.9354 13.7916 10.9116 13.6712 10.9116C13.5508 10.9116 13.4316 10.9354 13.3204 10.9815C13.2092 11.0276 13.1082 11.0952 13.0231 11.1804L11.5619 12.6416C10.8845 12.4399 9.62043 11.9816 8.81927 11.1804C8.0181 10.3792 7.55976 9.11515 7.3581 8.43773L8.81927 6.97657C8.90447 6.89151 8.97206 6.79049 9.01818 6.67929C9.06429 6.56808 9.08803 6.44887 9.08803 6.32848C9.08803 6.2081 9.06429 6.08889 9.01818 5.97768C8.97206 5.86648 8.90447 5.76546 8.81927 5.6804L5.1526 2.01373C4.97735 1.84832 4.7455 1.75618 4.50452 1.75618C4.26354 1.75618 4.03168 1.84832 3.85643 2.01373L1.37135 4.49973C1.02302 4.84807 0.82685 5.32657 0.834183 5.81515C0.855266 7.12048 1.20085 11.6543 4.77402 15.2275C8.34718 18.8006 12.881 19.1453 14.1863 19.1664ZM4.50543 3.95798L6.87593 6.32848L5.69068 7.51373C5.58282 7.6213 5.50359 7.75414 5.4602 7.90015C5.41681 8.04617 5.41065 8.20073 5.44227 8.34973C5.46427 8.45515 6.00235 10.9549 7.52402 12.4766C9.04568 13.9982 11.5454 14.5363 11.6508 14.5583C11.7999 14.5901 11.9545 14.584 12.1005 14.5406C12.2465 14.4972 12.3794 14.4179 12.4868 14.3099L13.6721 13.1247L16.0426 15.4951L14.2038 17.3331C13.0598 17.3138 9.1456 17.0067 6.07018 13.9304C2.98468 10.8449 2.68585 6.91698 2.66752 5.7959L4.50543 3.95798ZM17.3333 9.08307H19.1666C19.1666 4.38057 15.6163 0.833984 10.9074 0.833984V2.66732C14.6309 2.66732 17.3333 5.36507 17.3333 9.08307Z" fill="white"/>
</svg>
