<svg width="26" height="26" viewBox="0 0 26 26" fill="none" xmlns="http://www.w3.org/2000/svg">
<path d="M11.375 7.3125C12.0178 7.3125 12.6461 7.12189 13.1806 6.76478C13.7151 6.40766 14.1316 5.90008 14.3776 5.30622C14.6236 4.71236 14.688 4.0589 14.5626 3.42846C14.4372 2.79802 14.1276 2.21893 13.6731 1.7644C13.2186 1.30988 12.6395 1.00035 12.009 0.874949C11.3786 0.749547 10.7251 0.813908 10.1313 1.05989C9.53742 1.30588 9.02984 1.72244 8.67272 2.2569C8.31561 2.79136 8.125 3.41971 8.125 4.0625C8.12597 4.92416 8.46869 5.75025 9.07797 6.35953C9.68726 6.96881 10.5133 7.31153 11.375 7.3125ZM11.375 2.4375C11.6964 2.4375 12.0106 2.53281 12.2778 2.71136C12.545 2.88992 12.7533 3.14371 12.8763 3.44064C12.9993 3.73757 13.0315 4.0643 12.9688 4.37952C12.9061 4.69474 12.7513 4.98429 12.524 5.21155C12.2968 5.43881 12.0072 5.59358 11.692 5.65628C11.3768 5.71898 11.0501 5.6868 10.7531 5.56381C10.4562 5.44081 10.2024 5.23253 10.0239 4.9653C9.8453 4.69807 9.75 4.3839 9.75 4.0625C9.75048 3.63167 9.92184 3.21863 10.2265 2.91399C10.5311 2.60935 10.9442 2.43799 11.375 2.4375Z" fill="#41D050"/>
<path d="M17.9745 12.7649C17.2117 11.9067 16.1939 11.3603 14.7951 11.0634L13.5358 8.125H9.04531L7.71875 17.411V20.3125H10.5625V25.1875H15.4375V20.3125H19.5V17.875C19.5 15.5913 19.001 13.9197 17.9745 12.7649ZM17.875 18.6875H13.8125V23.5625H12.1875V18.6875H9.34375V17.5265L10.4547 9.75H12.4642L13.647 12.5097L14.0851 12.5827C15.3293 12.79 16.179 13.191 16.7599 13.8445C17.5102 14.6886 17.875 16.007 17.875 17.875V18.6875Z" fill="#41D050"/>
</svg>
