<svg width="24" height="24" viewBox="0 0 24 24" fill="none" xmlns="http://www.w3.org/2000/svg">
<path d="M20.3 5.6H7.058L6.677 3.689C6.5819 3.2125 6.32452 2.78373 5.9487 2.47574C5.57288 2.16776 5.10189 1.99963 4.616 2H2V3.8H4.616C4.68618 3.79859 4.75464 3.82183 4.80946 3.86568C4.86427 3.90953 4.90197 3.97122 4.916 4.04L6.737 13.145C6.886 13.8926 7.28926 14.5656 7.87826 15.0496C8.46726 15.5336 9.20566 15.7988 9.968 15.8H17.018C17.8139 15.8006 18.5835 15.5148 19.1861 14.9948C19.7886 14.4748 20.184 13.7554 20.3 12.968L21.2 6.629C21.2186 6.50046 21.2092 6.36942 21.1724 6.24486C21.1356 6.12031 21.0723 6.0052 20.9867 5.90744C20.9012 5.80968 20.7956 5.73158 20.677 5.67851C20.5585 5.62544 20.4299 5.59866 20.3 5.6ZM18.5 12.713C18.4484 13.0729 18.2679 13.4018 17.9919 13.6385C17.716 13.8752 17.3635 14.0037 17 14H9.968C9.62221 14.0001 9.28701 13.8807 9.01913 13.662C8.75126 13.4433 8.56716 13.1388 8.498 12.8L7.418 7.4H19.262L18.5 12.713Z" fill="white"/>
<path d="M18.4998 19.9996C19.1625 19.9996 19.6998 19.4624 19.6998 18.7996C19.6998 18.1369 19.1625 17.5996 18.4998 17.5996C17.8371 17.5996 17.2998 18.1369 17.2998 18.7996C17.2998 19.4624 17.8371 19.9996 18.4998 19.9996Z" fill="white"/>
<path d="M8.29961 19.9996C8.96235 19.9996 9.49961 19.4624 9.49961 18.7996C9.49961 18.1369 8.96235 17.5996 8.29961 17.5996C7.63687 17.5996 7.09961 18.1369 7.09961 18.7996C7.09961 19.4624 7.63687 19.9996 8.29961 19.9996Z" fill="white"/>
</svg>
