<svg width="22" height="13" viewBox="0 0 22 13" fill="none" xmlns="http://www.w3.org/2000/svg">
<path fill-rule="evenodd" clip-rule="evenodd" d="M21.002 6.49905C21.002 6.68323 20.9229 6.85987 20.7823 6.9901C20.6416 7.12034 20.4509 7.19351 20.252 7.19351L2.56245 7.1935L7.28295 11.563C7.42378 11.6934 7.5029 11.8703 7.5029 12.0547C7.5029 12.2391 7.42378 12.4159 7.28295 12.5463C7.14212 12.6767 6.95112 12.75 6.75195 12.75C6.55279 12.75 6.36178 12.6767 6.22095 12.5463L0.220953 6.99072C0.151108 6.92622 0.0956941 6.84958 0.0578847 6.76521C0.0200754 6.68084 0.000612797 6.5904 0.000612805 6.49905C0.000612813 6.40771 0.0200754 6.31726 0.0578848 6.23289C0.0956942 6.14852 0.151108 6.07189 0.220954 6.00738L6.22095 0.451763C6.36178 0.321363 6.55279 0.248106 6.75195 0.248106C6.95112 0.248106 7.14212 0.321363 7.28295 0.451763C7.42378 0.582163 7.5029 0.759022 7.5029 0.943435C7.5029 1.12785 7.42378 1.30471 7.28295 1.43511L2.56245 5.8046L20.252 5.8046C20.4509 5.8046 20.6416 5.87777 20.7823 6.008C20.9229 6.13824 21.002 6.31487 21.002 6.49905Z" fill="black"/>
</svg>
